
        <svg xmlns="http://www.w3.org/2000/svg" xmlns:xlink="http://www.w3.org/1999/xlink" version="1.1" width="3146.3414634146343" 
        height="943.9024390243903" viewBox="0 0 3146.3414634146343 943.9024390243903">
			
			<g transform="scale(7.317073170731708) translate(10, 10)">
				<defs id="SvgjsDefs1095"></defs><g id="SvgjsG1096" featureKey="symbolGroupContainer" transform="matrix(1,0,0,1,0,0)" fill="#fc4c69"><rect xmlns="http://www.w3.org/2000/svg" width="110" height="109" rx="10" ry="10"></rect></g><g id="SvgjsG1097" featureKey="v37d4h-0" transform="matrix(1.0871230217409438,0,0,1.0871230217409438,0.642760313582972,0.8946829429897392)" fill="#ffffff"><path xmlns="http://www.w3.org/2000/svg" d="M48.644,27.719c0.393-1.822,0.837-3.889,0.125-6.014c-0.689-2.056-1.48-3.269-2.49-3.816  c-1.087-0.59-2.167-0.219-2.955,0.051c-0.282,0.097-0.574,0.196-0.757,0.212c-0.556,0.045-1.005,0.03-1.439,0.015  c-1.153-0.042-2.247-0.081-3.904,1.118c-0.625,0.453-1.263,0.89-1.9,1.326c-1.136,0.777-2.31,1.582-3.418,2.48  c-1.975,1.601-3.561,3.609-5.094,5.552l-0.173,0.219c-1.36,1.724-2.093,3.359-2.868,5.092c-0.201,0.451-0.409,0.915-0.636,1.396  c-0.416,0.889-0.923,1.663-1.413,2.413c-1.054,1.613-2.143,3.28-2.253,5.899c-0.088,2.077-0.183,3.562-0.685,5.209l-0.093,0.305  c-0.574,1.88-1.227,4.011-0.678,6.211c0.166,0.667,0.403,1.275,0.632,1.864c0.354,0.911,0.66,1.698,0.652,2.523  c-0.018,1.772,0.124,3.659,1.267,5.44c0.54,0.842,1.205,1.529,1.848,2.194c0.241,0.249,0.482,0.498,0.714,0.754  c0.438,0.485,0.745,1.138,1.07,1.829c0.544,1.155,1.16,2.466,2.555,3.283c1.95,1.142,3.784,2.354,5.451,3.602l0.712,0.54  c1.057,0.805,2.149,1.637,3.371,2.309c2.284,1.256,4.361,1.269,6.561,1.282c0.017,0,0.033,0,0.051,0c0.97,0,1.762-0.171,2.42-0.521  c0,0,0-0.001,0.001-0.001c3.578-1.91,3.824-7.61,3.4-12.056c-0.103-1.076-0.398-2.07-0.685-3.033  c-0.154-0.52-0.31-1.038-0.428-1.563c-0.322-1.438-0.056-2.92,0.227-4.49c0.242-1.351,0.493-2.747,0.391-4.22  c-0.083-1.19-0.29-2.32-0.491-3.414c-0.351-1.907-0.682-3.709-0.308-5.604c0.63-3.193,0.624-6.454,0.619-9.608  c-0.003-2.11-0.007-4.293,0.186-6.396C48.298,29.33,48.466,28.548,48.644,27.719z M46.2,27.193  c-0.187,0.865-0.379,1.759-0.463,2.682c-0.202,2.219-0.198,4.46-0.195,6.628c0.005,3.172,0.01,6.168-0.572,9.119  c-0.466,2.362-0.076,4.486,0.302,6.54c0.197,1.072,0.383,2.085,0.456,3.136c0.081,1.162-0.132,2.349-0.357,3.604  c-0.313,1.745-0.638,3.55-0.205,5.479c0.13,0.581,0.3,1.155,0.471,1.729c0.264,0.887,0.513,1.725,0.593,2.558  c0.489,5.139-0.271,8.643-2.09,9.613c-0.294,0.155-0.712,0.23-1.278,0.227c-2.035-0.013-3.643-0.022-5.372-0.974  c-1.059-0.582-2.031-1.322-3.06-2.106L33.7,74.876c-1.742-1.305-3.656-2.569-5.687-3.758c-0.726-0.426-1.11-1.243-1.556-2.19  c-0.371-0.787-0.79-1.681-1.479-2.441c-0.251-0.276-0.511-0.546-0.771-0.815c-0.584-0.604-1.135-1.173-1.54-1.806  c-0.747-1.164-0.887-2.42-0.871-4.067c0.012-1.306-0.432-2.446-0.822-3.453c-0.21-0.539-0.408-1.049-0.536-1.563  c-0.381-1.527,0.14-3.229,0.643-4.875l0.095-0.308c0.631-2.074,0.712-3.984,0.79-5.831c0.081-1.933,0.86-3.126,1.848-4.637  c0.537-0.822,1.093-1.672,1.584-2.719c0.232-0.496,0.446-0.974,0.654-1.438c0.741-1.655,1.381-3.084,2.548-4.564l0.173-0.219  c1.449-1.835,2.947-3.732,4.706-5.159c1.03-0.834,2.111-1.575,3.257-2.359c0.655-0.448,1.311-0.897,1.954-1.363  c0.769-0.558,1.183-0.658,1.822-0.658c0.158,0,0.331,0.006,0.525,0.013c0.463,0.018,1.035,0.035,1.738-0.021  c0.489-0.041,0.95-0.198,1.356-0.338c0.292-0.1,0.835-0.286,0.954-0.219c0.103,0.056,0.648,0.434,1.312,2.414  C46.892,23.975,46.556,25.538,46.2,27.193z"></path><path xmlns="http://www.w3.org/2000/svg" d="M34.721,54.836c0.748,0.387,1.883,0.91,3.108,0.985c0.025,0.001,0.052,0.002,0.077,0.002c0.655,0,1.206-0.511,1.247-1.174  c0.042-0.688-0.482-1.281-1.172-1.324c-0.752-0.046-1.564-0.427-2.111-0.71c-1.806-0.935-3.307-2.217-4.226-3.611  c-1.286-1.949-1.896-4.414-1.675-6.762c0.267-2.824,1.231-5.429,2.646-7.146c1.377-1.671,3.434-2.61,5.446-2.495  c0.706,0.028,1.278-0.493,1.314-1.182c0.037-0.689-0.493-1.278-1.182-1.314c-2.812-0.146-5.63,1.123-7.509,3.401  c-1.724,2.093-2.892,5.191-3.204,8.501c-0.279,2.946,0.458,5.92,2.076,8.373C30.708,52.126,32.542,53.708,34.721,54.836z"></path><path xmlns="http://www.w3.org/2000/svg" d="M41.099,48.446c-0.668-0.622-1.435-1.025-2.11-1.381c-0.56-0.294-1.088-0.572-1.499-0.934  c-0.664-0.586-1.154-1.323-1.418-2.136c-0.855-2.625,1.126-5.536,1.754-6.366c0.416-0.55,0.308-1.334-0.243-1.751  s-1.335-0.308-1.751,0.243c-1.041,1.376-3.334,4.975-2.137,8.647c0.401,1.236,1.143,2.356,2.144,3.238  c0.635,0.559,1.322,0.921,1.986,1.271c0.59,0.311,1.147,0.604,1.571,0.998c0.899,0.838,1.502,2.063,1.791,3.645  c0.232,1.27,0.55,3.007-0.075,4.047c-0.546,0.907-1.708,1.447-3.113,1.447c-0.012,0-0.022,0-0.033,0  c-1.527-0.01-3.093-1.044-4.422-2.055c-1.21-0.919-2.402-1.86-3.594-2.8c-0.648-0.512-1.296-1.022-1.947-1.53  c-1.278-0.997-2.15-2.263-2.457-3.563c-0.158-0.673-0.834-1.089-1.503-0.931c-0.673,0.158-1.089,0.831-0.931,1.503  c0.437,1.854,1.628,3.616,3.354,4.962c0.646,0.505,1.291,1.014,1.937,1.522c1.203,0.949,2.407,1.898,3.628,2.827  c1.658,1.261,3.658,2.551,5.92,2.564c0.017,0,0.032,0,0.048,0c2.291,0,4.254-0.991,5.257-2.659c1.112-1.85,0.679-4.218,0.392-5.784  C43.258,51.35,42.4,49.659,41.099,48.446z"></path><path xmlns="http://www.w3.org/2000/svg" d="M42.299,66.362c-1.83-1.465-4.133-1.918-6.165-2.317l-0.353-0.07c-3.453-0.685-6.67-2.227-9.562-4.583  c-0.537-0.438-1.323-0.355-1.759,0.179c-0.437,0.535-0.356,1.323,0.179,1.759c3.212,2.618,6.797,4.333,10.655,5.099l0.356,0.07  c1.836,0.36,3.733,0.733,5.085,1.815c0.66,0.529,0.762,1.379,0.729,1.999c-0.069,1.367-0.846,2.865-1.805,3.483  c-0.58,0.374-0.747,1.148-0.373,1.729c0.239,0.37,0.642,0.572,1.052,0.572c0.232,0,0.467-0.064,0.677-0.199  c1.624-1.048,2.835-3.292,2.946-5.457C44.05,68.739,43.459,67.291,42.299,66.362z"></path><path xmlns="http://www.w3.org/2000/svg" d="M37.792,70.102c-0.985-0.232-3.868-1.029-5.352-1.911c-0.591-0.353-1.36-0.16-1.713,0.436  c-0.354,0.593-0.158,1.36,0.436,1.713c2.113,1.257,5.895,2.158,6.055,2.196c0.097,0.022,0.193,0.033,0.288,0.033  c0.566,0,1.08-0.388,1.216-0.963C38.88,70.934,38.464,70.261,37.792,70.102z"></path><path xmlns="http://www.w3.org/2000/svg" d="M43.097,24.229c-1.884-1.35-5.501-0.343-7.356,1.419c-0.501,0.476-0.521,1.267-0.046,1.767  c0.476,0.501,1.268,0.52,1.767,0.046c1.273-1.208,3.568-1.637,4.182-1.198c0.176,0.126,0.14,0.72-0.271,1.612  c-1.012,2.2-0.859,4.403-0.713,6.533c0.035,0.516,0.071,1.032,0.089,1.547c0.081,2.403-0.121,3.969-1.378,4.351  c-0.66,0.201-1.032,0.899-0.832,1.561c0.164,0.539,0.66,0.886,1.196,0.886c0.12,0,0.242-0.018,0.364-0.054  c3.344-1.018,3.212-4.941,3.147-6.828c-0.019-0.544-0.056-1.089-0.093-1.634c-0.131-1.9-0.255-3.696,0.49-5.318  C44.937,26.104,43.856,24.772,43.097,24.229z"></path><path xmlns="http://www.w3.org/2000/svg" d="M81.217,48.87c-0.502-1.646-0.597-3.131-0.685-5.208c-0.11-2.619-1.199-4.286-2.253-5.899  c-0.49-0.75-0.997-1.524-1.413-2.413c-0.227-0.481-0.435-0.945-0.636-1.396c-0.775-1.732-1.508-3.368-2.869-5.092l-0.172-0.219  c-1.533-1.942-3.119-3.951-5.094-5.552c-1.108-0.898-2.282-1.703-3.418-2.48c-0.638-0.437-1.275-0.873-1.9-1.326  c-1.657-1.2-2.751-1.162-3.904-1.118c-0.435,0.016-0.886,0.031-1.441-0.016c-0.181-0.015-0.473-0.114-0.755-0.211  c-0.788-0.27-1.865-0.641-2.956-0.051c-1.009,0.548-1.8,1.761-2.489,3.816c-0.712,2.125-0.268,4.191,0.125,6.014  c0.178,0.829,0.346,1.611,0.416,2.383c0.192,2.104,0.188,4.286,0.186,6.396c-0.005,3.154-0.011,6.415,0.619,9.608  c0.374,1.895,0.043,3.696-0.308,5.604c-0.201,1.094-0.408,2.224-0.491,3.414c-0.103,1.473,0.148,2.869,0.391,4.22  c0.282,1.57,0.549,3.053,0.227,4.49c-0.118,0.525-0.273,1.044-0.428,1.563c-0.286,0.963-0.582,1.957-0.685,3.034  c-0.424,4.444-0.178,10.145,3.4,12.055c0.001,0,0.001,0.001,0.001,0.001c0.658,0.351,1.45,0.521,2.421,0.521c0.017,0,0.033,0,0.05,0  c2.199-0.014,4.276-0.026,6.56-1.282c1.223-0.672,2.315-1.504,3.372-2.309l0.711-0.539c1.668-1.249,3.502-2.461,5.452-3.604  c1.395-0.816,2.011-2.127,2.555-3.282c0.325-0.691,0.632-1.344,1.069-1.828c0.232-0.257,0.474-0.506,0.715-0.755  c0.643-0.665,1.308-1.353,1.849-2.194c1.142-1.781,1.283-3.668,1.266-5.44c-0.008-0.825,0.298-1.612,0.652-2.523  c0.229-0.589,0.466-1.197,0.632-1.864c0.549-2.2-0.104-4.331-0.678-6.211L81.217,48.87z M79.562,54.781  c-0.128,0.515-0.326,1.024-0.536,1.563c-0.391,1.007-0.834,2.147-0.822,3.453c0.016,1.647-0.124,2.903-0.87,4.067  c-0.406,0.633-0.957,1.202-1.541,1.806c-0.261,0.27-0.521,0.539-0.772,0.816c-0.688,0.76-1.106,1.653-1.478,2.44  c-0.445,0.947-0.83,1.765-1.556,2.189c-2.03,1.189-3.944,2.454-5.688,3.76l-0.728,0.551c-1.028,0.784-2.001,1.524-3.061,2.106  c-1.729,0.951-3.336,0.961-5.371,0.974c-0.572-0.011-0.985-0.07-1.278-0.227c-1.818-0.971-2.579-4.475-2.09-9.612  c0.08-0.834,0.329-1.672,0.593-2.559c0.171-0.574,0.341-1.148,0.471-1.729c0.433-1.93,0.108-3.734-0.205-5.479  c-0.226-1.255-0.438-2.441-0.357-3.604c0.073-1.051,0.259-2.063,0.456-3.136c0.378-2.054,0.768-4.178,0.302-6.54  c-0.582-2.951-0.577-5.947-0.572-9.119c0.003-2.168,0.007-4.409-0.195-6.628c-0.084-0.923-0.276-1.816-0.463-2.682  c-0.355-1.655-0.691-3.219-0.197-4.693c0.663-1.98,1.209-2.358,1.311-2.414c0.12-0.068,0.664,0.119,0.955,0.219  c0.406,0.14,0.867,0.297,1.354,0.337c0.705,0.06,1.278,0.041,1.74,0.022c0.975-0.035,1.388-0.051,2.348,0.646  c0.644,0.466,1.299,0.915,1.954,1.363c1.146,0.784,2.227,1.525,3.257,2.359c1.759,1.427,3.257,3.324,4.706,5.159l0.172,0.219  c1.168,1.48,1.808,2.909,2.549,4.564c0.208,0.464,0.422,0.941,0.654,1.438c0.491,1.047,1.047,1.896,1.584,2.719  c0.987,1.511,1.767,2.704,1.848,4.637c0.078,1.847,0.159,3.757,0.79,5.83l0.095,0.309C79.422,51.553,79.942,53.254,79.562,54.781z"></path><path xmlns="http://www.w3.org/2000/svg" d="M60.624,31.42c0.036,0.688,0.628,1.213,1.314,1.182c2.014-0.117,4.069,0.824,5.446,2.495  c1.414,1.717,2.379,4.321,2.646,7.146c0.222,2.348-0.389,4.813-1.674,6.762c-0.92,1.395-2.421,2.677-4.228,3.611  c-0.546,0.283-1.358,0.664-2.11,0.71c-0.689,0.043-1.214,0.636-1.172,1.324c0.041,0.663,0.592,1.174,1.247,1.174  c0.025,0,0.052-0.001,0.077-0.002c1.226-0.075,2.36-0.599,3.107-0.985c2.18-1.128,4.014-2.71,5.165-4.455  c1.617-2.453,2.354-5.427,2.075-8.373c-0.313-3.31-1.48-6.408-3.204-8.501c-1.879-2.279-4.688-3.543-7.509-3.401  C61.117,30.142,60.587,30.73,60.624,31.42z"></path><path xmlns="http://www.w3.org/2000/svg" d="M75.958,48.536c-0.666-0.153-1.345,0.259-1.503,0.931c-0.307,1.301-1.179,2.566-2.457,3.563  c-0.651,0.508-1.299,1.019-1.947,1.53c-1.191,0.939-2.384,1.881-3.594,2.8c-1.329,1.011-2.895,2.045-4.422,2.055  c-0.011,0-0.021,0-0.032,0c-1.405,0-2.568-0.54-3.114-1.446c-0.625-1.041-0.308-2.778-0.075-4.048  c0.289-1.581,0.892-2.807,1.791-3.645c0.424-0.395,0.981-0.688,1.571-0.998c0.664-0.35,1.352-0.712,1.987-1.271  c1-0.881,1.741-2.001,2.143-3.235c1.197-3.675-1.096-7.273-2.137-8.649c-0.417-0.55-1.2-0.659-1.751-0.243  c-0.551,0.417-0.659,1.201-0.243,1.751c0.628,0.83,2.609,3.741,1.754,6.368c-0.264,0.811-0.754,1.548-1.417,2.133  c-0.412,0.362-0.94,0.641-1.5,0.935c-0.676,0.355-1.442,0.759-2.11,1.381c-1.302,1.213-2.159,2.903-2.547,5.025  c-0.287,1.566-0.721,3.935,0.392,5.785c1.003,1.667,2.966,2.658,5.257,2.658c0.016,0,0.032,0,0.048,0  c2.262-0.014,4.262-1.304,5.92-2.564c1.221-0.929,2.425-1.878,3.628-2.827c0.646-0.509,1.29-1.018,1.937-1.522  c1.726-1.346,2.917-3.107,3.354-4.962C77.047,49.367,76.631,48.694,75.958,48.536z"></path><path xmlns="http://www.w3.org/2000/svg" d="M73.78,59.392c-2.892,2.356-6.108,3.898-9.562,4.583l-0.353,0.07c-2.032,0.399-4.335,0.853-6.165,2.317  c-1.16,0.929-1.751,2.377-1.664,4.078c0.111,2.165,1.322,4.409,2.946,5.457c0.21,0.135,0.444,0.199,0.677,0.199  c0.41,0,0.813-0.202,1.052-0.572c0.374-0.58,0.207-1.354-0.373-1.729c-0.959-0.618-1.735-2.116-1.805-3.483  c-0.032-0.62,0.069-1.47,0.729-1.999c1.352-1.082,3.249-1.455,5.085-1.815l0.356-0.07c3.858-0.766,7.443-2.48,10.655-5.099  c0.535-0.436,0.615-1.224,0.179-1.759C75.103,59.036,74.317,58.954,73.78,59.392z"></path><path xmlns="http://www.w3.org/2000/svg" d="M67.56,68.19c-1.782,1.06-5.316,1.903-5.352,1.911c-0.672,0.159-1.088,0.833-0.93,1.504  c0.137,0.575,0.649,0.963,1.216,0.963c0.095,0,0.191-0.011,0.288-0.033c0.16-0.038,3.941-0.939,6.055-2.196  c0.594-0.353,0.789-1.12,0.436-1.713C68.92,68.03,68.15,67.837,67.56,68.19z"></path><path xmlns="http://www.w3.org/2000/svg" d="M56.847,34.236c-0.037,0.545-0.074,1.09-0.093,1.635c-0.064,1.886-0.196,5.81,3.147,6.827  c0.122,0.036,0.244,0.054,0.364,0.054c0.536,0,1.032-0.347,1.196-0.886c0.2-0.661-0.172-1.359-0.832-1.561  c-1.257-0.382-1.459-1.947-1.378-4.35c0.018-0.516,0.054-1.032,0.089-1.548c0.146-2.13,0.299-4.333-0.713-6.533  c-0.41-0.893-0.446-1.486-0.271-1.612c0.613-0.439,2.908-0.011,4.182,1.198c0.498,0.474,1.291,0.455,1.767-0.046  c0.476-0.5,0.455-1.291-0.046-1.767c-1.855-1.763-5.473-2.769-7.356-1.419c-0.76,0.543-1.84,1.874-0.547,4.688  C57.102,30.54,56.978,32.336,56.847,34.236z"></path></g><g id="SvgjsG1098" featureKey="UxBHKT-0" transform="matrix(2.5930727106429625,0,0,2.5930727106429625,127.76995758631203,18.345804875308723)" fill="#fc4c69"><path d="M9.72 18.9 q-0.38 0.52 -1.31 0.93 t-2.03 0.41 q-1.7 0 -2.95 -0.76 t-1.91 -2.07 t-0.66 -2.91 t0.66 -2.91 t1.91 -2.07 t2.95 -0.76 q1.14 0 2.01 0.39 t1.33 0.99 l0 -5.26 l2.96 0 l0 15.12 l-2.96 0 l0 -1.1 z M9.02 12.25 q-0.82 -0.87 -2.2 -0.87 q-1.4 0 -2.21 0.87 t-0.81 2.25 q0 1.34 0.83 2.22 t2.19 0.88 q1.4 0 2.21 -0.83 t0.81 -2.27 q0 -1.38 -0.82 -2.25 z M18.45 19.74 q-1.37 -0.54 -2.35 -1.83 t-0.98 -3.37 t0.99 -3.36 t2.37 -1.82 t2.62 -0.54 q1.44 0 2.74 0.64 t2.13 1.88 t0.87 2.94 q0 0.52 -0.02 0.9 t-0.04 0.48 l-8.68 0 q0.24 1.16 1.2 1.58 t1.8 0.42 q1.08 0 1.72 -0.39 t1.1 -0.89 l2.32 1.34 q-1.88 2.56 -5.14 2.56 q-1.28 0 -2.65 -0.54 z M19.06 12.05 q-0.78 0.61 -0.88 1.49 l5.5 0 q-0.06 -0.52 -0.4 -1 t-0.91 -0.79 t-1.29 -0.31 q-1.24 0 -2.02 0.61 z M32.07 19.74 q-1.37 -0.54 -2.35 -1.83 t-0.98 -3.37 t0.99 -3.36 t2.37 -1.82 t2.62 -0.54 q1.44 0 2.74 0.64 t2.13 1.88 t0.87 2.94 q0 0.52 -0.02 0.9 t-0.04 0.48 l-8.68 0 q0.24 1.16 1.2 1.58 t1.8 0.42 q1.08 0 1.72 -0.39 t1.1 -0.89 l2.32 1.34 q-1.88 2.56 -5.14 2.56 q-1.28 0 -2.65 -0.54 z M32.68 12.05 q-0.78 0.61 -0.88 1.49 l5.5 0 q-0.06 -0.52 -0.4 -1 t-0.91 -0.79 t-1.29 -0.31 q-1.24 0 -2.02 0.61 z M45.84 10.1 q0.38 -0.52 1.31 -0.93 t2.03 -0.41 q1.7 0 2.95 0.76 t1.91 2.07 t0.66 2.91 t-0.66 2.91 t-1.91 2.07 t-2.95 0.76 q-1.14 0 -2.01 -0.39 t-1.33 -0.99 l0 4.68 l-2.96 0 l0 -14.54 l2.96 0 l0 1.1 z M46.54 16.75 q0.82 0.87 2.2 0.87 q1.4 0 2.21 -0.87 t0.81 -2.25 q0 -1.34 -0.83 -2.22 t-2.19 -0.88 q-1.4 0 -2.21 0.83 t-0.81 2.27 q0 1.38 0.82 2.25 z M57.16 4.880000000000001 l3 0 l0 15.12 l-3 0 l0 -15.12 z M65.47 19.49 q-1.37 -0.77 -2.17 -2.09 t-0.8 -2.88 q0 -1.54 0.8 -2.86 t2.17 -2.09 t2.99 -0.77 t3 0.77 t2.19 2.09 t0.81 2.86 q0 1.56 -0.81 2.88 t-2.19 2.09 t-3 0.77 t-2.99 -0.77 z M66.94 11.83 q-0.7 0.41 -1.1 1.12 t-0.4 1.57 q0 0.9 0.39 1.61 t1.08 1.12 t1.55 0.41 q0.84 0 1.53 -0.41 t1.09 -1.13 t0.4 -1.6 q0 -0.86 -0.4 -1.57 t-1.09 -1.12 t-1.53 -0.41 q-0.82 0 -1.52 0.41 z M93.31 10.04 q1.13 1.24 1.13 3.46 l0 6.5 l-3.02 0 l0 -6.5 q0 -1.18 -0.59 -1.7 t-1.55 -0.52 q-0.8 0 -1.44 0.6 t-0.66 2 l0 6.12 l-3.02 0 l0 -6.5 q0 -1.18 -0.59 -1.7 t-1.53 -0.52 q-0.86 0 -1.49 0.64 t-0.63 2.26 l-0.02 5.82 l-2.98 0 l0 -11 l2.98 0 l0 1 q0.58 -0.52 1.4 -0.86 t1.5 -0.34 q2.32 0 3.54 1.5 q0.62 -0.7 1.54 -1.1 t2 -0.4 q2.3 0 3.43 1.24 z M105.88 18.9 q-0.38 0.52 -1.31 0.93 t-2.03 0.41 q-1.7 0 -2.95 -0.76 t-1.91 -2.07 t-0.66 -2.91 t0.66 -2.91 t1.91 -2.07 t2.95 -0.76 q1.14 0 2.01 0.39 t1.33 0.99 l0 -1.14 l2.96 0 l0 11 l-2.96 0 l0 -1.1 z M105.17999999999999 12.25 q-0.82 -0.87 -2.2 -0.87 q-1.4 0 -2.21 0.87 t-0.81 2.25 q0 1.34 0.83 2.22 t2.19 0.88 q1.4 0 2.21 -0.83 t0.81 -2.27 q0 -1.38 -0.82 -2.25 z"></path></g>
			</g>
		</svg>
	